<svg class="h-5 w-5 fill-current" viewBox="0 0 24 24" fill="" xmlns="http://www.w3.org/2000/svg"><path d="M13.1367 7.50493C13.551 7.50493 13.8867 7.16914 13.8867 6.75493C13.8867 6.34071 13.551 6.00493 13.1367 6.00493V7.50493ZM19.9024 13.0846C19.9024 12.6704 19.5666 12.3346 19.1524 12.3346C18.7382 12.3346 18.4024 12.6704 18.4024 13.0846H19.9024ZM2.5013 9.95291C2.1333 9.76278 1.68084 9.90697 1.49071 10.275C1.30058 10.643 1.44477 11.0954 1.81277 11.2855L2.5013 9.95291ZM16.5938 12.1078C16.9382 11.8778 17.031 11.412 16.8009 11.0676C16.5709 10.7231 16.1051 10.6304 15.7607 10.8604L16.5938 12.1078ZM16.2825 6.01303C15.8683 6.01303 15.5325 6.34882 15.5325 6.76303C15.5325 7.17725 15.8683 7.51303 16.2825 7.51303V6.01303ZM22 7.51303C22.4142 7.51303 22.75 7.17725 22.75 6.76303C22.75 6.34882 22.4142 6.01303 22 6.01303V7.51303ZM18.3913 9.62177C18.3913 10.036 18.727 10.3718 19.1413 10.3718C19.5555 10.3718 19.8913 10.036 19.8913 9.62177H18.3913ZM19.8913 3.9043C19.8913 3.49008 19.5555 3.1543 19.1413 3.1543C18.727 3.1543 18.3913 3.49008 18.3913 3.9043H19.8913ZM8.27708 13.7812L7.93282 14.4475L8.27708 13.7812ZM10.1277 14.5662L10.0103 15.307L10.1277 14.5662ZM11.3949 14.4952L11.1955 13.7722L11.3949 14.4952ZM18.4024 18.1899C18.4024 18.8282 17.8849 19.3457 17.2466 19.3457V20.8457C18.7134 20.8457 19.9024 19.6566 19.9024 18.1899H18.4024ZM17.2466 19.3457H3.90583V20.8457H17.2466V19.3457ZM3.90583 19.3457C3.26748 19.3457 2.75 18.8282 2.75 18.1899H1.25C1.25 19.6566 2.43905 20.8457 3.90583 20.8457V19.3457ZM2.75 18.1899V8.66075H1.25V18.1899H2.75ZM2.75 8.66075C2.75 8.02241 3.26748 7.50493 3.90583 7.50493V6.00493C2.43905 6.00493 1.25 7.19398 1.25 8.66075H2.75ZM3.90583 7.50493H13.1367V6.00493H3.90583V7.50493ZM19.9024 18.1899V13.0846H18.4024V18.1899H19.9024ZM1.81277 11.2855L7.93282 14.4475L8.62134 13.1149L2.5013 9.95291L1.81277 11.2855ZM13.5627 14.1321L16.5938 12.1078L15.7607 10.8604L12.7297 12.8847L13.5627 14.1321ZM16.2825 7.51303H19.1413V6.01303H16.2825V7.51303ZM19.1413 7.51303H22V6.01303H19.1413V7.51303ZM19.8913 9.62177V6.76303H18.3913V9.62177H19.8913ZM19.8913 6.76303V3.9043H18.3913V6.76303H19.8913ZM7.93282 14.4475C8.80209 14.8966 9.38471 15.2078 10.0103 15.307L10.2451 13.8255C9.91517 13.7732 9.58255 13.6115 8.62134 13.1149L7.93282 14.4475ZM12.7297 12.8847C11.8299 13.4856 11.5175 13.6834 11.1955 13.7722L11.5943 15.2182C12.2049 15.0498 12.7491 14.6755 13.5627 14.1321L12.7297 12.8847ZM10.0103 15.307C10.5386 15.3907 11.0786 15.3604 11.5943 15.2182L11.1955 13.7722C10.8861 13.8575 10.562 13.8757 10.2451 13.8255L10.0103 15.307Z"></path></svg>