<svg class="" stroke="#0f172a" fill="none" viewBox="0 0 22 22" xmlns="http://www.w3.org/2000/svg"><path d="M14.3083 8.97852C14.9383 7.44645 15.2408 5.7389 14.7557 4.08374C14.0577 1.70199 11.5262 0.6286 9.47593 1.19739C8.45082 1.48178 7.53408 2.13598 7.15271 3.35617C6.17303 2.53487 5.03486 2.49894 4.03173 2.79293C1.99015 3.39126 0.447158 5.69084 1.14518 8.07259C1.89721 10.6386 4.31075 12.2888 6.48391 13.2341M14.3083 8.97852C14.0084 8.57633 13.6208 8.25477 13.2004 8.00413C11.373 6.91481 8.63784 7.34826 7.367 9.48015C6.67907 10.6342 6.44594 11.9384 6.48391 13.2341M14.3083 8.97852C14.6489 9.43523 14.8764 9.99591 14.9107 10.6748C16.0645 10.1243 17.1676 10.3511 18.0735 10.909C19.8851 12.0248 20.8205 14.6105 19.5497 16.7423C17.008 21.0062 9.71032 20.7837 9.10119 20.4206C8.65692 20.1558 6.5862 16.7257 6.48391 13.2341" stroke-width="1.5" stroke-linecap="round" stroke-linejoin="round"></path></svg>